<?xml version="1.0" standalone="no"?><!DOCTYPE svg PUBLIC "-//W3C//DTD SVG 1.1//EN" "http://www.w3.org/Graphics/SVG/1.1/DTD/svg11.dtd"><svg t="1580369801510" class="icon" viewBox="0 0 1024 1024" version="1.1" xmlns="http://www.w3.org/2000/svg" p-id="1468" xmlns:xlink="http://www.w3.org/1999/xlink" width="200" height="200"><defs><style type="text/css">@font-face { font-weight: 400; font-style: normal; font-family: Inter-Loom; src: url("https://cdn.loom.com/assets/fonts/inter/Inter-UI-Regular.woff2") format("woff2"); }
@font-face { font-weight: 400; font-style: italic; font-family: Inter-Loom; src: url("https://cdn.loom.com/assets/fonts/inter/Inter-UI-Italic.woff2") format("woff2"); }
@font-face { font-weight: 500; font-style: normal; font-family: Inter-Loom; src: url("https://cdn.loom.com/assets/fonts/inter/Inter-UI-Medium.woff2") format("woff2"); }
@font-face { font-weight: 500; font-style: italic; font-family: Inter-Loom; src: url("https://cdn.loom.com/assets/fonts/inter/Inter-UI-MediumItalic.woff2") format("woff2"); }
@font-face { font-weight: 700; font-style: normal; font-family: Inter-Loom; src: url("https://cdn.loom.com/assets/fonts/inter/Inter-UI-Bold.woff2") format("woff2"); }
@font-face { font-weight: 700; font-style: italic; font-family: Inter-Loom; src: url("https://cdn.loom.com/assets/fonts/inter/Inter-UI-BoldItalic.woff2") format("woff2"); }
@font-face { font-weight: 900; font-style: normal; font-family: Inter-Loom; src: url("https://cdn.loom.com/assets/fonts/inter/Inter-UI-Black.woff2") format("woff2"); }
@font-face { font-weight: 900; font-style: italic; font-family: Inter-Loom; src: url("https://cdn.loom.com/assets/fonts/inter/Inter-UI-BlackItalic.woff2") format("woff2"); }
</style></defs><path d="M212.8 614.4h70.4v160h-70.4z" fill="#FFF2D2" p-id="1469"></path><path d="M212.8 614.4h70.4v24h-70.4z" fill="#D8C18F" p-id="1470"></path><path d="M227.2 868.8c1.6-11.2 9.6-19.2 20.8-19.2 11.2 0 19.2 8 20.8 19.2h43.2c-1.6-33.6-28.8-60.8-64-60.8s-62.4 27.2-64 60.8h43.2z" fill="#84DBFF" p-id="1471"></path><path d="M232 774.4h32v33.6h-32z" fill="#B7B6B6" p-id="1472"></path><path d="M585.6 412.8H374.4c-17.6 0-32-14.4-32-32V200c0-17.6 14.4-32 32-32h211.2c17.6 0 32 14.4 32 32v180.8c0 17.6-14.4 32-32 32z" fill="#84DBFF" p-id="1473" data-spm-anchor-id="a313x.7781069.0.i1" class=""></path><path d="M361.6 401.6V206.4c0-9.6 8-17.6 17.6-17.6h225.6c3.2 0 8 0 11.2 1.6-4.8-12.8-16-22.4-30.4-22.4H374.4c-17.6 0-32 14.4-32 32v180.8c0 14.4 9.6 25.6 22.4 30.4-1.6-3.2-3.2-6.4-3.2-9.6z" fill="#C5F1FF" p-id="1474"></path><path d="M651.2 168h-67.2c17.6 0 32 14.4 32 32v180.8c0 17.6-14.4 32-32 32h67.2c17.6 0 32-14.4 32-32V200c1.6-17.6-12.8-32-32-32z" fill="#52BADB" p-id="1475"></path><path d="M444.8 412.8h116.8v48h-116.8z" fill="#FFF2D2" p-id="1476"></path><path d="M444.8 412.8h116.8v22.4h-116.8z" fill="#D8C18F" p-id="1477"></path><path d="M518.4 412.8h43.2v48h-43.2z" fill="#EAD194" p-id="1478"></path><path d="M518.4 412.8h43.2v22.4h-43.2z" fill="#BFA064" p-id="1479"></path><path d="M260.8 462.4h513.6v446.4H260.8z" fill="#F9A287" p-id="1480"></path><path d="M283.2 484.8h489.6v-22.4h-512v446.4h22.4z" fill="#FFCDC0" p-id="1481"></path><path d="M681.6 462.4h92.8v446.4h-92.8z" fill="#DB785A" p-id="1482"></path><path d="M420.8 254.4m-33.6 0a33.6 33.6 0 1 0 67.2 0 33.6 33.6 0 1 0-67.2 0Z" fill="#F9A287" p-id="1483"></path><path d="M572.8 254.4c0 19.2-16 33.6-33.6 33.6s-33.6-16-33.6-33.6 16-33.6 33.6-33.6 33.6 16 33.6 33.6z" fill="#F9A287" p-id="1484"></path><path d="M420.8 297.6c-24 0-41.6-19.2-41.6-41.6s19.2-41.6 41.6-41.6 41.6 19.2 41.6 41.6-19.2 41.6-41.6 41.6z m0-68.8c-14.4 0-25.6 11.2-25.6 25.6 0 14.4 11.2 25.6 25.6 25.6s25.6-11.2 25.6-25.6c0-14.4-11.2-25.6-25.6-25.6zM539.2 297.6c-24 0-41.6-19.2-41.6-41.6s19.2-41.6 41.6-41.6 41.6 19.2 41.6 41.6-19.2 41.6-41.6 41.6z m0-68.8c-14.4 0-25.6 11.2-25.6 25.6 0 14.4 11.2 25.6 25.6 25.6s25.6-11.2 25.6-25.6c0-14.4-11.2-25.6-25.6-25.6z" fill="#63312D" p-id="1485"></path><path d="M504 83.2m-33.6 0a33.6 33.6 0 1 0 67.2 0 33.6 33.6 0 1 0-67.2 0Z" fill="#FFF2D2" p-id="1486"></path><path d="M480 94.4c0-19.2 16-33.6 33.6-33.6 6.4 0 12.8 1.6 17.6 4.8-6.4-9.6-16-16-28.8-16-19.2 0-33.6 16-33.6 33.6 0 12.8 6.4 22.4 16 28.8-3.2-4.8-4.8-11.2-4.8-17.6z" fill="#FFFFFF" p-id="1487"></path><path d="M856 614.4H681.6v-152h121.6c30.4 0 54.4 24 54.4 54.4-1.6-1.6-1.6 97.6-1.6 97.6z" fill="#52BADB" p-id="1488"></path><path d="M772.8 614.4h-92.8v-152h38.4c30.4 0 54.4 24 54.4 54.4v97.6z" fill="#84DBFF" p-id="1489"></path><path d="M766.4 489.6c-8-4.8-16-6.4-25.6-6.4h-38.4v131.2h-20.8v-152H720c19.2 0 36.8 11.2 46.4 27.2z" fill="#C5F1FF" p-id="1490"></path><path d="M168 614.4h92.8v-152h-38.4c-30.4 0-54.4 24-54.4 54.4v97.6z" fill="#84DBFF" p-id="1491"></path><path d="M187.2 518.4c0-20.8 16-36.8 36.8-36.8h35.2v-19.2h-36.8c-30.4 0-54.4 24-54.4 54.4v97.6h20.8l-1.6-96z" fill="#C5F1FF" p-id="1492"></path><path d="M342.4 537.6h259.2v140.8H342.4z" fill="#FFF2D2" p-id="1493"></path><path d="M342.4 537.6h259.2v25.6H342.4z" fill="#D8C18F" p-id="1494"></path><path d="M342.4 537.6h36.8v140.8h-36.8z" fill="#EAD194" p-id="1495"></path><path d="M601.6 529.6H342.4c-4.8 0-8 3.2-8 8v140.8c0 4.8 3.2 8 8 8h259.2c4.8 0 8-3.2 8-8v-140.8c0-4.8-4.8-8-8-8z m-251.2 16h20.8v124.8h-20.8v-124.8z m243.2 124.8h-208v-124.8H592v124.8z" fill="#63312D" p-id="1496"></path><path d="M388.8 908.8h217.6V976H388.8z" fill="#FFF2D2" p-id="1497"></path><path d="M388.8 908.8h217.6v24H388.8z" fill="#D8C18F" p-id="1498"></path><path d="M568 908.8H608V976h-40z" fill="#EAD194" p-id="1499"></path><path d="M568 908.8H608v24h-40z" fill="#BFA064" p-id="1500"></path><path d="M411.2 644.8c-4.8 0-8-3.2-8-8s3.2-8 8-8 8 3.2 8 8-3.2 8-8 8zM425.6 585.6h44.8v11.2h-16v46.4h-14.4v-46.4h-16l1.6-11.2zM500.8 625.6l-11.2 17.6h-16l19.2-28.8-19.2-28.8h16l11.2 17.6 9.6-17.6h16l-19.2 28.8 19.2 28.8h-16l-9.6-17.6zM532.8 585.6h44.8v11.2h-16v46.4h-14.4v-46.4h-16v-11.2z" fill="#63312D" p-id="1501"></path><path d="M736 614.4h70.4v160H736z" fill="#FFF2D2" p-id="1502"></path><path d="M736 614.4h70.4v24H736z" fill="#D8C18F" p-id="1503"></path><path d="M750.4 868.8c1.6-11.2 9.6-19.2 20.8-19.2s19.2 8 20.8 19.2h43.2c-1.6-33.6-28.8-60.8-64-60.8s-62.4 27.2-64 60.8h43.2z" fill="#84DBFF" p-id="1504"></path><path d="M755.2 774.4h32v33.6h-32z" fill="#B7B6B6" p-id="1505"></path><path d="M801.6 454.4H569.6v-32h81.6c22.4 0 40-17.6 40-40V200c0-22.4-17.6-40-40-40H512V124.8c19.2-3.2 35.2-20.8 35.2-41.6 0-24-19.2-41.6-41.6-41.6S464 60.8 464 83.2c0 20.8 14.4 38.4 33.6 41.6V160h-121.6c-22.4 0-40 17.6-40 40v180.8c0 22.4 17.6 40 40 40h62.4v32H222.4c-33.6 0-62.4 27.2-62.4 62.4v99.2c0 4.8 3.2 8 8 8h36.8v152c0 4.8 3.2 8 8 8h11.2v22.4c-27.2 9.6-46.4 33.6-48 64 0 1.6 1.6 4.8 1.6 6.4 1.6 1.6 3.2 3.2 6.4 3.2h43.2c3.2 0 8-3.2 8-6.4 1.6-6.4 6.4-11.2 12.8-11.2h4.8v49.6c0 4.8 3.2 8 8 8h120V976c0 4.8 3.2 8 8 8h217.6c4.8 0 8-3.2 8-8v-59.2h158.4c4.8 0 8-3.2 8-8V864c1.6 1.6 3.2 4.8 3.2 6.4 0 3.2 3.2 6.4 8 6.4h43.2c1.6 0 4.8 0 6.4-3.2 1.6-1.6 1.6-3.2 1.6-6.4-1.6-30.4-20.8-54.4-48-64v-22.4h12.8c4.8 0 8-3.2 8-8v-152h41.6c4.8 0 8-3.2 8-8v-99.2c-1.6-32-28.8-59.2-64-59.2z m-112 16H720c25.6 0 46.4 20.8 46.4 46.4V608h-76.8v-137.6zM617.6 176h35.2c12.8 0 24 11.2 24 24v180.8c0 12.8-11.2 24-24 24h-35.2c4.8-6.4 8-14.4 8-24V200c0-9.6-3.2-17.6-8-24z m-140.8-92.8c0-14.4 11.2-25.6 25.6-25.6s27.2 11.2 27.2 25.6c0 14.4-11.2 27.2-25.6 27.2s-27.2-12.8-27.2-27.2z m-102.4 321.6c-12.8 0-24-11.2-24-24V200c0-12.8 11.2-24 24-24h211.2c12.8 0 24 11.2 24 24v180.8c0 12.8-11.2 24-24 24H374.4z m179.2 16v32h-27.2v-32h27.2z m-43.2 0v32h-57.6v-32h57.6zM176 515.2c0-25.6 20.8-46.4 46.4-46.4h30.4v136H176v-89.6z m44.8 107.2h32v144h-32v-144zM240 800v-17.6h12.8V800H240z m8 43.2c-12.8 0-22.4 8-27.2 19.2h-27.2c4.8-25.6 27.2-44.8 54.4-44.8h4.8v27.2c-1.6-1.6-3.2-1.6-4.8-1.6z m20.8-372.8h404.8v430.4H268.8V470.4z m128 446.4H560v51.2H396.8v-51.2z m201.6 51.2H576v-51.2h22.4v51.2z m166.4-67.2H688V622.4h38.4v152c0 4.8 3.2 8 8 8h11.2v22.4c-27.2 9.6-46.4 33.6-48 64 0 1.6 0 4.8 1.6 6.4 1.6 1.6 3.2 3.2 6.4 3.2h43.2c3.2 0 8-3.2 8-6.4 0-4.8 3.2-8 8-11.2v40z m60.8-40h-27.2c-3.2-8-9.6-14.4-16-16-3.2-1.6-6.4-1.6-9.6-1.6h-6.4c-9.6 1.6-17.6 8-20.8 17.6h-27.2c4.8-24 24-41.6 48-44.8h16c20.8 4.8 38.4 22.4 43.2 44.8zM763.2 800v-17.6h16V800h-16z m35.2-33.6h-54.4v-144h54.4v144z m49.6-160h-67.2v-91.2c0-16-6.4-30.4-16-41.6l-4.8-4.8h41.6c25.6 0 46.4 20.8 46.4 46.4v91.2z" fill="#63312D" p-id="1506"></path></svg>